<svg width="61" height="61" viewBox="0 0 61 61" fill="none" xmlns="http://www.w3.org/2000/svg">
<g clip-path="url(#clip0_159_2523)">
<path d="M50.6367 18.9828L50.5216 18.8426L39.2938 4.96255C39.0694 4.69115 38.7649 4.49766 38.4239 4.40972C38.081 4.32234 37.7195 4.3436 37.3892 4.47055C37.0589 4.59751 36.7762 4.8239 36.5801 5.11844C36.387 5.41285 36.2919 5.76187 36.3074 6.1136L36.2858 20.0211L19.6632 25.4222L11.4702 14.1852C11.2768 13.8888 10.9944 13.6614 10.6636 13.5358C10.3327 13.4102 9.97054 13.3928 9.62919 13.4862C9.28836 13.5774 8.98452 13.7727 8.76012 14.045C8.53572 14.3173 8.40196 14.6528 8.37752 15.0048L7.45235 32.8614L7.44078 33.0397C7.31061 35.6101 8.01857 38.1533 9.45817 40.2868C10.8978 42.4203 12.9912 44.0286 15.4235 44.87L15.4513 44.8795L15.518 44.9042L27.0406 48.831L32.7497 50.8121L36.2204 52.0163C36.628 52.1571 37.0704 52.1612 37.4805 52.0279C37.8906 51.8947 38.2461 51.6314 38.4931 51.2779L40.5931 48.2636L44.0502 43.3042L51.1035 33.2954L51.1227 33.2691C52.6027 31.1578 53.3557 28.6223 53.2678 26.0454C53.1799 23.4686 52.2561 20.9903 50.6357 18.9847L50.6367 18.9828Z" fill="#E24329"/>
<path d="M50.6366 18.9827L50.5216 18.8425C47.7562 20.4163 45.3715 22.58 43.5371 25.1797L33.4788 39.6288C37.0112 40.8512 40.544 42.0723 44.0772 43.2922L51.1305 33.2834L51.1511 33.2566C52.6246 31.1431 53.3712 28.6078 53.2783 26.033C53.1854 23.4581 52.2581 20.9833 50.6362 18.9813L50.6366 18.9827Z" fill="#FC6D26"/>
<path d="M27.0465 48.8258L32.7491 50.8106L36.2198 52.0149C36.6273 52.1557 37.0697 52.1597 37.4798 52.0265C37.89 51.8932 38.2455 51.6299 38.4925 51.2764L40.5925 48.2621L44.0496 43.3027C44.0496 43.3027 39.1182 41.6002 33.4507 39.6379L27.0469 48.8272L27.0465 48.8258Z" fill="#FCA326"/>
<path d="M16.8238 33.8702C13.8124 32.8441 10.6117 32.4956 7.4501 32.8496L7.43852 33.0279C7.3064 35.6004 8.01379 38.1461 9.45415 40.2816C10.8945 42.4171 12.9898 44.0268 15.4244 44.868L15.4522 44.8775L15.5189 44.9022L27.0415 48.829L33.4802 39.6283L16.8238 33.8702Z" fill="#FC6D26"/>
</g>
<defs>
<clipPath id="clip0_159_2523">
<rect width="47" height="47" fill="white" transform="translate(0.888428 15.4119) rotate(-18)"/>
</clipPath>
</defs>
</svg>
