<svg width="80" height="79" viewBox="0 0 80 79" fill="none" xmlns="http://www.w3.org/2000/svg">
<g clip-path="url(#clip0_159_2532)">
<path fill-rule="evenodd" clip-rule="evenodd" d="M46.2151 9.20812C33.3868 4.02514 18.724 10.4591 13.4138 23.6024C9.16904 34.1085 12.2207 45.6863 20.1669 52.5582C21.2238 53.2605 21.9482 52.683 22.2024 52.0538C22.425 51.5028 23.1501 49.5988 23.9452 47.631C16.9194 46.4405 17.2927 41.6475 17.2927 41.6475C17.3685 38.474 16.1178 37.1452 16.1178 37.1452C14.5939 34.8359 16.8599 35.7514 16.8599 35.7514C19.1393 36.8554 19.4466 39.6344 19.4466 39.6344C20.0578 44.0921 23.8126 44.4193 25.4114 44.3328C26.2233 42.8756 27.2674 42.0617 28.1588 41.7354C23.2344 39.1048 18.6458 34.8709 22.3343 25.7415C23.3836 23.1444 25.1633 21.3919 27.2906 20.3291C27.2988 19.646 27.4778 16.8799 30.0652 14.1262C30.0652 14.1262 32.2784 14.2879 35.455 19.1417C37.5561 19.3855 39.6131 19.9087 41.573 20.6979C43.5318 21.4893 45.4171 22.5718 47.0544 23.8282C52.7116 22.5435 54.416 23.9646 54.416 23.9646C54.3644 27.7427 52.5712 29.8567 52.1025 30.3538C52.933 32.6116 52.9578 35.0932 51.9085 37.6903C48.22 46.8196 41.9941 46.6382 36.57 45.1337C37.1132 46.2227 37.2703 47.9338 36.3641 50.1769C35.0764 53.3641 34.0049 55.9067 33.6871 56.6933C33.4326 57.3231 33.5531 58.2418 34.8005 58.4711C45.2905 59.0469 55.5281 52.8388 59.7729 42.3327C65.1211 29.2048 59.005 14.3756 46.2151 9.20812Z" fill="white"/>
</g>
<defs>
<clipPath id="clip0_159_2532">
<rect width="60" height="60" fill="white" transform="translate(23.4553 0.0124512) rotate(22)"/>
</clipPath>
</defs>
</svg>
