<svg width="76" height="76" viewBox="0 0 76 76" fill="none" xmlns="http://www.w3.org/2000/svg">
<g clip-path="url(#clip0_159_2535)">
<path d="M33.6826 28.3301L35.3342 22.9278C35.4733 22.4728 35.7484 22.1836 36.2158 22.0781L48.9898 19.1436C50.7293 18.7427 52.6139 18.8838 54.4333 19.44C61.2572 21.5263 63.9623 28.1364 62.2412 33.766C62.1195 34.1639 61.9804 34.6189 61.7842 35.0564L52.5414 25.0174C51.9808 24.4109 51.2982 24.2022 50.4942 24.3915L33.6826 28.3301ZM52.612 57.1247L56.5586 44.2158C56.8021 43.4194 56.6348 42.7466 56.0741 42.1399L44.3391 29.4738L49.8192 28.2266C50.2867 28.121 50.6281 28.2254 50.9565 28.5743L59.9058 38.1502C62.4772 40.9265 63.3989 45.4363 62.2515 49.1893C60.9302 53.5111 57.1542 56.7099 52.612 57.1247ZM27.3718 36.9719L23.5433 32.8167C23.2148 32.4679 23.1485 32.0743 23.2876 31.6194L27.1124 19.1088C28.9727 13.0243 35.044 9.84346 41.3564 11.7733C43.745 12.5036 45.7187 13.9778 47.1613 15.9733L33.9766 19.0313C33.1728 19.2206 32.6576 19.6849 32.4141 20.4813L27.3718 36.9719ZM35.6356 45.8407L30.101 40.0448L32.535 32.0836L40.3644 30.3736L45.8984 36.1692L43.4644 44.1305L35.6356 45.8407ZM34.6435 64.4409C32.2549 63.7107 30.2812 62.2364 28.8386 60.241L42.0233 57.1829C42.8272 56.9937 43.3423 56.5293 43.5858 55.7329L48.6276 39.2417L52.5132 43.4143C52.8418 43.7631 52.9082 44.1567 52.7691 44.6116L48.9442 57.1223C47.084 63.2067 40.9554 66.3707 34.6435 64.4409ZM25.043 47.6394L16.0938 38.0632C13.5223 35.2871 12.6007 30.7773 13.7481 27.0243C15.0869 22.6455 18.9023 19.5215 23.4438 19.1065L19.4799 32.0719C19.2365 32.8683 19.4039 33.5414 19.9645 34.1478L31.6606 46.7396L26.1803 47.9871C25.7129 48.0925 25.3715 47.9882 25.043 47.6394ZM21.5667 56.7741C15.1408 54.8095 11.8985 48.5328 13.724 42.5619C13.8631 42.1069 14.0592 41.6694 14.2549 41.2317L23.4754 51.1395C24.0359 51.7461 24.7187 51.9549 25.5226 51.7654L42.3169 47.8839L40.6652 53.2864C40.5261 53.7413 40.251 54.0305 39.7835 54.1359L27.0094 57.0704C25.2701 57.4714 23.3861 57.3304 21.5667 56.7741ZM33.6005 67.8526C40.4814 69.9563 47.7198 66.8219 51.0103 60.7389C57.8833 61.0368 63.8032 56.3177 65.6634 50.2332C66.8805 46.2524 66.3568 41.8643 64.1378 38.1388C64.7875 37.0315 65.3233 35.8893 65.6882 34.6956C68.1744 26.5639 63.4379 18.4619 55.8179 16.1322C54.2828 15.6629 52.7346 15.438 51.0996 15.4981C49.3053 12.2135 46.2662 9.54327 42.3996 8.36114C35.5186 6.25742 28.2804 9.3918 24.9899 15.4748C18.1168 15.1769 12.1969 19.8961 10.3367 25.9805C9.11962 29.9614 9.64331 34.3495 11.8621 38.075C11.2128 39.1823 10.677 40.3243 10.3119 41.5182C7.82582 49.6499 12.5621 57.7517 20.1823 60.0814C21.7174 60.5507 23.2655 60.7757 24.9006 60.7156C26.6944 64.0001 29.7335 66.6703 33.6005 67.8526Z" fill="white"/>
</g>
<defs>
<clipPath id="clip0_159_2535">
<rect width="60" height="60" fill="white" transform="translate(18.082 0.646484) rotate(17)"/>
</clipPath>
</defs>
</svg>
