<svg width="62" height="62" viewBox="0 0 62 62" fill="none" xmlns="http://www.w3.org/2000/svg">
<g clip-path="url(#clip0_152_802)">
<path d="M4.34406 20.9954L26.1222 7.75457C28.7377 6.09205 29.5577 5.92164 31.9587 6.26523L41.8257 7.6705C43.4375 7.92138 43.9636 7.98319 44.464 8.96529L58.7089 36.9224C59.6096 38.6902 59.4889 40.0712 57.3303 41.336L31.8202 56.3134C30.1519 57.2459 29.2664 57.4497 27.8485 56.7701L19.0442 52.5966C17.3953 51.7874 16.5355 51.0709 15.9684 49.9578L3.29147 25.0779C2.55754 23.6375 2.57819 22.0601 4.34406 20.9954Z" fill="white"/>
<path fill-rule="evenodd" clip-rule="evenodd" d="M26.1223 7.75481L4.34415 20.9956C2.57829 22.0603 2.55764 23.6378 3.29156 25.0782L15.9685 49.9581C16.5356 51.0711 17.4287 51.8531 19.0443 52.5969L27.8819 56.8358C29.2999 57.5154 30.2842 57.3437 31.8537 56.3791L57.3638 41.4017C59.5223 40.137 59.6431 38.7559 58.7423 36.9881L44.4641 8.96553C43.9971 8.0489 43.5364 7.95375 42.0234 7.73499C41.9246 7.70286 41.8592 7.73621 41.7603 7.70409L31.9921 6.33095C29.6232 5.88853 28.8366 6.12442 26.1223 7.75481ZM15.6291 23.0804C13.536 24.3118 13.1112 24.6107 11.3339 24.1968L7.02346 23.3416C6.52941 23.181 6.46015 22.7215 7.27763 22.2225L28.2717 9.54615C30.0376 8.48146 31.2541 8.60384 32.2743 8.82627L37.3727 9.60983C37.6024 9.57526 38.2286 9.83348 37.705 10.1003L15.8909 22.947L15.6291 23.0804ZM27.5203 52.5666L15.4105 28.7998C14.8768 27.7522 14.9705 27.1272 15.8534 26.5948L40.9387 11.9164C41.7562 11.4174 42.4158 11.7411 42.9496 12.7887L54.9593 36.3591C55.493 37.4066 55.7304 38.3578 54.3893 39.1236L30.3833 53.1697C29.0756 54.0009 28.1542 53.8106 27.5203 52.5666ZM40.4904 17.6704C40.9883 18.3239 41.2244 19.1108 40.5378 19.5431L39.4931 20.4053L48.4337 37.9521C47.6868 39.075 46.9039 39.8037 46.1185 40.2039C44.875 40.8375 44.3476 40.6114 42.7653 39.9331L28.6396 31.6259L34.6779 43.4766L37.4652 42.7986C37.4652 42.7986 38.1991 44.239 36.2356 45.2395L30.9047 48.3681C30.607 48.1074 30.3375 47.255 30.7944 46.8573L32.0341 45.7308L24.0277 30.0172L21.9641 30.8212C21.4662 30.1677 21.3252 28.9201 22.4044 28.2877L28.0947 24.8935L42.5489 33.1983L36.9444 22.1987L34.7166 23.004C34.152 22.2195 34.4074 21.2647 35.1595 20.799L40.4904 17.6704Z" fill="black"/>
</g>
<defs>
<clipPath id="clip0_152_802">
<rect width="44" height="46" fill="white" transform="translate(0.956299 20.4946) rotate(-27)"/>
</clipPath>
</defs>
</svg>
