<svg width="78" height="78" viewBox="0 0 78 78" fill="none" xmlns="http://www.w3.org/2000/svg">
<g clip-path="url(#clip0_152_808)">
<g opacity="0.783251">
<g filter="url(#filter0_f_152_808)">
<path d="M26.618 18.1815L15.3048 43.2224C10.9608 52.5382 22.0054 47.8737 27.0172 48.9748C29.346 49.5155 21.9952 53.9759 24.2047 55.0062C26.3704 56.0524 34.8366 54.6567 36.9864 55.6592C39.1521 56.7054 35.0015 60.1498 37.1672 61.1961C39.2891 62.2582 42.409 59.3873 44.4043 62.8259C45.8738 65.3651 51.6405 61.7292 53.598 58.3889C54.8074 56.263 50.0353 57.9999 51.0218 55.8063C53.512 50.3881 57.8113 51.3023 57.9175 47.0988C57.9885 44.8419 50.7363 45.8949 52.0692 43.9719C55.2602 39.3893 70.4637 32.1204 60.5508 27.4979L34.8927 15.1698C31.7755 13.8253 27.9665 15.2117 26.618 18.1815ZM60.2817 46.2384C60.6163 47.1578 67.9439 45.0857 66.9443 43.5655C65.3553 40.9706 60.0499 43.1495 60.2817 46.2384ZM31.6226 62.1729C33.7524 62.9843 35.5827 60.3845 35.6537 58.1275C33.3286 56.6435 28.3025 60.9519 31.6226 62.1729ZM60.1072 48.4834C58.7625 51.0552 61.8279 52.1211 63.3359 50.1344C63.7338 49.5929 62.5432 48.0926 60.1072 48.4834Z" fill="black"/>
</g>
<g opacity="0.576355" filter="url(#filter1_f_152_808)">
<path d="M26.7735 18.6093L15.4603 43.6502C11.1163 52.9659 22.1609 48.3014 27.1727 49.4026C29.5015 49.9432 22.1507 54.4036 24.3602 55.4339C26.526 56.4801 34.9921 55.0845 37.1419 56.0869C39.3077 57.1332 35.157 60.5776 37.3227 61.6238C39.4446 62.686 42.5645 59.8151 44.5598 63.2537C46.0293 65.7928 51.7961 62.1569 53.7535 58.8167C54.963 56.6907 50.1908 58.4276 51.1773 56.2341C53.6675 50.8158 57.9668 51.7301 58.073 47.5266C58.144 45.2696 50.8918 46.3226 52.2247 44.3996C55.4157 39.8171 70.6192 32.5481 60.7063 27.9257L35.0482 15.5976C31.931 14.2531 28.1221 15.6394 26.7735 18.6093ZM60.4372 46.6661C60.7718 47.5855 68.0994 45.5135 67.0998 43.9932C65.5108 41.3984 60.2054 43.5773 60.4372 46.6661ZM31.7781 62.6007C33.9079 63.4121 35.7382 60.8122 35.8092 58.5552C33.4841 57.0712 28.458 61.3796 31.7781 62.6007ZM60.2627 48.9112C58.9181 51.483 61.9834 52.5489 63.4914 50.5621C63.8893 50.0207 62.6987 48.5204 60.2627 48.9112Z" fill="black"/>
</g>
</g>
<path d="M26.4623 17.7538L15.149 42.7947C10.805 52.1104 21.8496 47.446 26.8614 48.5471C29.1902 49.0878 21.8395 53.5481 24.049 54.5784C26.2147 55.6247 34.6809 54.229 36.8307 55.2314C38.9964 56.2777 34.8457 59.7221 37.0114 60.7683C39.1333 61.8305 42.2532 58.9596 44.2485 62.3982C45.7181 64.9373 51.4848 61.3014 53.4422 57.9612C54.6517 55.8352 49.8795 57.5721 50.866 55.3786C53.3563 49.9603 57.6555 50.8746 57.7617 46.6711C57.8327 44.4141 50.5805 45.4671 51.9134 43.5441C55.1045 38.9616 70.308 31.6927 60.3951 27.0702L34.7369 14.7421C31.6197 13.3976 27.8108 14.7839 26.4623 17.7538ZM60.1259 45.8106C60.4606 46.73 67.7881 44.658 66.7886 43.1377C65.1996 40.5429 59.8941 42.7218 60.1259 45.8106ZM31.4668 61.7452C33.5966 62.5566 35.4269 59.9568 35.4979 57.6998C33.1728 56.2157 28.1467 60.5241 31.4668 61.7452ZM59.9514 48.0557C58.6068 50.6275 61.6721 51.6934 63.1801 49.7067C63.578 49.1652 62.3874 47.6649 59.9514 48.0557Z" fill="black"/>
<mask id="mask0_152_808" style="mask-type:luminance" maskUnits="userSpaceOnUse" x="14" y="14" width="53" height="50">
<path d="M26.5805 17.9518L15.3743 42.7558C11.0714 51.9834 22.0115 47.3631 26.9759 48.4538C29.2827 48.9894 22.0015 53.4075 24.1901 54.4281C26.3353 55.4644 34.7214 54.082 36.8509 55.0749C38.9961 56.1113 34.8847 59.5231 37.0299 60.5594C39.1318 61.6116 42.2221 58.7678 44.1985 62.1739C45.6542 64.689 51.3664 61.0875 53.3053 57.7788C54.5033 55.673 49.7763 57.3935 50.7535 55.2207C53.2201 49.8537 57.4787 50.7593 57.5839 46.5956C57.6543 44.3599 50.4706 45.403 51.7909 43.4982C54.9518 38.959 70.0115 31.7588 60.1923 27.1801L34.7769 14.9686C31.6892 13.6368 27.9163 15.0101 26.5805 17.9518ZM32.4997 47.5729C32.89 47.4309 46.4881 44.446 41.9902 47.6056C40.2714 48.8205 30.2012 48.4095 32.4997 47.5729ZM59.9258 45.7432C60.2572 46.6539 67.5155 44.6015 66.5254 43.0956C64.9514 40.5253 59.6962 42.6836 59.9258 45.7432ZM31.5378 61.527C33.6474 62.3308 35.4604 59.7555 35.5307 57.5199C33.2276 56.0499 28.249 60.3176 31.5378 61.527ZM59.7529 47.9671C58.421 50.5146 61.4573 51.5704 62.9511 49.6024C63.3452 49.0661 62.1659 47.5799 59.7529 47.9671Z" fill="white"/>
</mask>
<g mask="url(#mask0_152_808)">
<path opacity="0.669951" d="M26.5805 17.9518L15.3743 42.7558C11.0714 51.9834 22.0115 47.3631 26.9759 48.4538C29.2827 48.9894 22.0015 53.4075 24.1901 54.4281C26.3353 55.4644 34.7214 54.082 36.8509 55.0749C38.9961 56.1113 34.8847 59.5231 37.0299 60.5594C39.1318 61.6116 42.2221 58.7678 44.1985 62.1739C45.6542 64.689 51.3664 61.0875 53.3053 57.7788C54.5033 55.673 49.7763 57.3935 50.7535 55.2207C53.2201 49.8537 57.4787 50.7593 57.5839 46.5956C57.6543 44.3599 50.4706 45.403 51.7909 43.4982C54.9518 38.959 70.0115 31.7588 60.1923 27.1801L34.7769 14.9686C31.6892 13.6368 27.9163 15.0101 26.5805 17.9518ZM32.4997 47.5729C32.89 47.4309 46.4881 44.446 41.9902 47.6056C40.2714 48.8205 30.2012 48.4095 32.4997 47.5729ZM59.9258 45.7432C60.2572 46.6539 67.5155 44.6015 66.5254 43.0956C64.9514 40.5253 59.6962 42.6836 59.9258 45.7432ZM31.5378 61.527C33.6474 62.3308 35.4604 59.7555 35.5307 57.5199C33.2276 56.0499 28.249 60.3176 31.5378 61.527ZM59.7529 47.9671C58.421 50.5146 61.4573 51.5704 62.9511 49.6024C63.3452 49.0661 62.1659 47.5799 59.7529 47.9671Z" fill="url(#paint0_linear_152_808)"/>
</g>
<path opacity="0.505263" d="M17.1265 43.235C13.9911 49.8802 22.1083 45.3747 29.6846 45.5693L34.6171 16.5042C31.7685 15.1392 29.1819 16.2808 27.9896 18.9164L17.1265 43.235Z" fill="url(#paint1_linear_152_808)"/>
<path d="M34.1206 16.4539L43.9021 21.1241C44.7979 21.5418 45.2918 22.8991 45.0412 23.4365L40.4432 21.8377L41.2884 26.3394L37.7814 25.8309L34.1088 30.5888L30.2221 24.8142L29.6906 31.2548L23.3264 33.5216C22.1005 33.9678 21.8136 32.6344 22.6211 30.9026C24.1127 27.2361 27.2674 20.7827 28.2101 18.6051C29.1966 16.4115 31.9708 15.4514 34.1206 16.4539Z" fill="url(#paint2_linear_152_808)"/>
<path opacity="0.216749" fill-rule="evenodd" clip-rule="evenodd" d="M36.8221 54.3518C36.8221 54.3518 38.0272 55.2526 38.1508 55.8377C38.3932 56.986 36.2399 58.3868 37.1147 59.1691C37.979 59.9421 39.6364 58.7225 41.5593 59.1599C43.474 59.5955 43.7988 61.7853 45.1125 61.8878C47.6746 62.0877 52.4559 57.2619 52.1872 57.4254C51.9184 57.5888 46.9197 60.6806 45.3436 60.1382C43.5466 59.5198 42.863 58.8798 41.5973 58.588C40.4113 58.3146 38.9711 58.5512 38.4718 58.1556C37.9726 57.76 38.6751 56.7595 38.3827 55.7533C38.207 55.1491 36.8221 54.3518 36.8221 54.3518Z" fill="url(#paint3_radial_152_808)"/>
<path opacity="0.275862" fill-rule="evenodd" clip-rule="evenodd" d="M36.8221 54.3518C36.8221 54.3518 38.0272 55.2526 38.1508 55.8377C38.3932 56.986 36.2399 58.3868 37.1147 59.1691C37.979 59.9421 39.6364 58.7225 41.5593 59.1599C43.474 59.5955 43.7988 61.7853 45.1125 61.8878C47.6746 62.0877 52.4559 57.2619 52.1872 57.4254C42.6143 60.9509 43.5043 57.8297 39.2173 57.5504C38.5978 57.51 38.6751 56.7595 38.3827 55.7533C38.207 55.1491 36.8221 54.3518 36.8221 54.3518Z" fill="url(#paint4_radial_152_808)"/>
<path opacity="0.453202" fill-rule="evenodd" clip-rule="evenodd" d="M51.2765 43.3791C58.7279 37.0812 61.3336 35.6402 63.1374 31.7748C60.8626 35.7418 54.4616 39.7555 49.7008 44.2809L51.2765 43.3791Z" fill="url(#paint5_radial_152_808)"/>
<path opacity="0.512315" fill-rule="evenodd" clip-rule="evenodd" d="M51.1287 42.9734C63.4702 32.7948 61.0853 33.6954 62.9897 31.369C59.1123 34.7332 50.7602 37.9814 49.5531 43.8751L51.1287 42.9734Z" fill="url(#paint6_radial_152_808)"/>
<path opacity="0.285714" d="M64.9668 42.4832C65.0213 42.6331 64.8797 42.8474 64.5731 43.0791C64.2665 43.3107 63.82 43.5407 63.3319 43.7183C62.8437 43.896 62.3539 44.0069 61.9701 44.0265C61.5864 44.0461 61.3401 43.9729 61.2856 43.823C61.231 43.6731 61.3726 43.4588 61.6792 43.2271C61.9858 42.9955 62.4323 42.7656 62.9204 42.5879C63.4086 42.4102 63.8984 42.2994 64.2822 42.2797C64.666 42.2601 64.9122 42.3333 64.9668 42.4832Z" fill="url(#paint7_linear_152_808)"/>
<path opacity="0.620689" d="M65.8418 42.9031C65.9593 43.226 65.8109 43.6307 65.4293 44.0281C65.0476 44.4256 64.4639 44.7833 63.8066 45.0225C63.1493 45.2618 62.4723 45.3629 61.9244 45.3038C61.3766 45.2446 61.0028 45.03 60.8852 44.7071C60.7677 44.3843 60.9161 43.9796 61.2978 43.5821C61.6795 43.1846 62.2631 42.827 62.9204 42.5877C63.5777 42.3485 64.2548 42.2473 64.8026 42.3065C65.3505 42.3656 65.7243 42.5802 65.8418 42.9031Z" fill="url(#paint8_linear_152_808)"/>
<path fill-rule="evenodd" clip-rule="evenodd" d="M60.2331 45.7109C61.4012 46.2007 66.4186 44.8441 66.685 43.1C65.5266 44.7779 61.911 45.6523 60.2331 45.7109Z" fill="url(#paint9_radial_152_808)"/>
<path opacity="0.285714" d="M61.2318 48.4015C61.3048 48.4698 61.3648 48.5505 61.4084 48.639C61.452 48.7276 61.4784 48.8223 61.4859 48.9177C61.4935 49.0131 61.4821 49.1074 61.4524 49.195C61.4227 49.2827 61.3753 49.3622 61.313 49.4288C61.2506 49.4954 61.1745 49.5479 61.0889 49.5833C61.0034 49.6186 60.9101 49.6362 60.8144 49.635C60.7187 49.6337 60.6225 49.6137 60.5312 49.576C60.44 49.5383 60.3555 49.4837 60.2826 49.4154C60.2096 49.3471 60.1495 49.2664 60.1059 49.1778C60.0623 49.0893 60.036 48.9946 60.0285 48.8992C60.0209 48.8038 60.0323 48.7095 60.062 48.6218C60.0917 48.5341 60.139 48.4547 60.2014 48.3881C60.2638 48.3215 60.3399 48.269 60.4255 48.2336C60.511 48.1982 60.6043 48.1807 60.7 48.1819C60.7957 48.1831 60.8919 48.2032 60.9832 48.2409C61.0744 48.2785 61.1589 48.3331 61.2318 48.4015Z" fill="url(#paint10_linear_152_808)"/>
<path opacity="0.620689" d="M61.6336 48.4318C61.7428 48.5339 61.8329 48.6541 61.8989 48.7856C61.965 48.9172 62.0055 49.0574 62.0184 49.1984C62.0312 49.3393 62.016 49.4782 61.9737 49.6071C61.9314 49.736 61.8627 49.8524 61.7717 49.9496C61.6807 50.0468 61.5691 50.123 61.4433 50.1737C61.3174 50.2244 61.1798 50.2487 61.0383 50.2451C60.8968 50.2416 60.7542 50.2104 60.6186 50.1531C60.483 50.0959 60.3571 50.0139 60.2481 49.9117C60.139 49.8096 60.0488 49.6894 59.9828 49.5578C59.9168 49.4263 59.8762 49.2861 59.8634 49.1451C59.8505 49.0042 59.8657 48.8653 59.908 48.7364C59.9504 48.6074 60.019 48.4911 60.11 48.3939C60.201 48.2966 60.3126 48.2205 60.4385 48.1698C60.5643 48.1191 60.7019 48.0948 60.8434 48.0983C60.9849 48.1019 61.1275 48.1331 61.2631 48.1903C61.3987 48.2476 61.5246 48.3296 61.6336 48.4318Z" fill="url(#paint11_linear_152_808)"/>
<path fill-rule="evenodd" clip-rule="evenodd" d="M60.6155 50.4756C61.518 50.7696 64.1875 49.8778 62.603 48.6451C63.32 49.8013 61.4661 50.3262 60.6155 50.4756Z" fill="url(#paint12_radial_152_808)"/>
<path fill-rule="evenodd" clip-rule="evenodd" d="M24.9682 54.0706C24.9158 53.9267 34.9753 53.5372 37.0804 54.5203C35.3612 53.7442 27.9043 53.2341 26.9156 53.5588C25.9268 53.8835 25.1052 54.0864 24.9682 54.0706Z" fill="url(#paint13_radial_152_808)"/>
<path opacity="0.285714" d="M33.9877 57.7964C34.0607 57.888 33.9739 58.0753 33.7464 58.3171C33.5188 58.5589 33.1692 58.8354 32.7744 59.0858C32.3796 59.3361 31.972 59.5399 31.6411 59.6522C31.3103 59.7645 31.0835 59.7762 31.0104 59.6846C30.9374 59.593 31.0242 59.4058 31.2518 59.164C31.4793 58.9222 31.8289 58.6456 32.2237 58.3953C32.6185 58.1449 33.0262 57.9411 33.357 57.8288C33.6878 57.7165 33.9147 57.7048 33.9877 57.7964Z" fill="url(#paint14_linear_152_808)"/>
<path opacity="0.620689" d="M34.821 57.8678C34.9783 58.065 34.918 58.3881 34.6533 58.7659C34.3886 59.1437 33.9413 59.5454 33.4097 59.8826C32.8781 60.2197 32.3058 60.4647 31.8187 60.5636C31.3316 60.6625 30.9695 60.6073 30.8123 60.4101C30.655 60.2129 30.7153 59.8898 30.98 59.512C31.2447 59.1341 31.692 58.7325 32.2236 58.3953C32.7552 58.0582 33.3275 57.8132 33.8146 57.7143C34.3017 57.6153 34.6637 57.6705 34.821 57.8678Z" fill="url(#paint15_linear_152_808)"/>
<path opacity="0.615764" fill-rule="evenodd" clip-rule="evenodd" d="M30.6374 60.6734C30.6374 60.6734 31.6021 61.8063 32.9646 61.3856C34.3431 60.9601 35.2726 58.7055 35.1813 58.0512C35.1393 58.6574 34.4155 60.7022 32.7327 61.2895C31.7774 61.6229 30.6374 60.6734 30.6374 60.6734Z" fill="url(#paint16_radial_152_808)"/>
<path d="M30.1733 15.2723C28.8169 15.766 27.6663 16.7411 27.0755 18.0421L15.7658 43.0756C14.7172 45.3242 14.7139 46.5476 15.038 47.121C15.2001 47.4077 15.4464 47.6184 15.8667 47.78C16.2869 47.9416 16.8687 48.0382 17.5373 48.0706C18.8745 48.1353 20.5796 47.9589 22.2654 47.8217C23.9511 47.6844 25.614 47.5819 27.0159 47.8899C27.2307 47.9398 27.4445 48.0198 27.6317 48.1771C27.819 48.3344 27.9551 48.583 27.9902 48.8213C28.0603 49.298 27.8724 49.6312 27.6708 49.9447C27.2676 50.5716 26.6298 51.2028 25.9958 51.8558C25.3619 52.5089 24.7272 53.172 24.4551 53.6251C24.3191 53.8517 24.3005 54.0177 24.2998 54.0071C24.2991 53.9965 24.2051 53.9061 24.3308 53.9648C24.6628 54.1251 25.5716 54.2758 26.6708 54.3061C27.7699 54.3365 29.0857 54.2927 30.4137 54.2453C31.7416 54.198 33.0819 54.1418 34.2437 54.1683C35.4055 54.1948 36.3689 54.2619 37.116 54.6103C37.4906 54.7913 37.8101 55.0697 37.9808 55.4111C38.1515 55.7526 38.1767 56.1222 38.1428 56.4523C38.0749 57.1123 37.7947 57.7031 37.5475 58.2648C37.3003 58.8266 37.0838 59.356 37.0516 59.6693C37.0355 59.826 37.0571 59.9165 37.0828 59.9679C37.1085 60.0193 37.1374 60.0701 37.3042 60.1507C37.3105 60.1535 37.3167 60.1564 37.3229 60.1594C38.0465 60.5216 39.2102 60.186 40.6031 60.0191C41.2995 59.9356 42.0534 59.9186 42.8098 60.2075C43.5663 60.4964 44.274 61.0979 44.8317 62.0591C45.0675 62.4664 45.375 62.5946 45.9925 62.5663C46.6099 62.538 47.4652 62.2611 48.3432 61.7881C50.0994 60.8423 51.9679 59.1325 52.8537 57.6209C52.9081 57.5253 52.8926 57.5509 52.9059 57.509C52.7984 57.479 52.551 57.4217 52.1607 57.3773C51.6996 57.3249 51.1724 57.3109 50.658 56.9946C50.4008 56.8365 50.1517 56.5297 50.0781 56.1676C50.0045 55.8055 50.0885 55.4513 50.2469 55.099C51.56 52.242 53.4248 50.9952 54.8156 50.0275C55.511 49.5436 56.0874 49.1227 56.4634 48.6375C56.8393 48.1524 57.0673 47.5928 57.091 46.6583C57.0942 46.5569 57.0838 46.5316 56.9976 46.4444C56.9114 46.3572 56.7215 46.2366 56.4502 46.1323C55.9077 45.9237 55.0803 45.7884 54.2632 45.6578C53.4462 45.5271 52.6575 45.4151 52.0153 45.1435C51.6943 45.0076 51.3406 44.818 51.1568 44.4023C50.973 43.9866 51.1124 43.5004 51.353 43.1534C52.247 41.8695 53.8297 40.5637 55.555 39.1604C57.2803 37.7571 59.1463 36.2755 60.5816 34.8363C62.0169 33.3971 62.9498 32.0017 63.0123 30.9148C63.0436 30.3713 62.9077 29.8826 62.472 29.3451C62.0363 28.8076 61.2788 28.2321 60.1006 27.6827L34.4686 15.3668C34.4623 15.3641 34.4562 15.3608 34.4499 15.3581C33.0659 14.7672 31.5236 14.7808 30.1733 15.2723ZM63.0333 42.977C61.8947 43.4386 61.0256 44.353 60.8733 45.3436C61.0196 45.3452 61.1552 45.3575 61.3796 45.3298C62.0323 45.2491 62.9054 45.0326 63.7404 44.7494C64.5754 44.4662 65.3784 44.095 65.8324 43.7711C66.0311 43.6293 66.1256 43.5246 66.1694 43.4625C65.8835 43.0255 65.494 42.785 64.9464 42.6991C64.3792 42.61 63.6839 42.7133 63.0333 42.977ZM33.6117 58.1789C32.6736 58.4483 31.6561 59.2311 31.2587 59.8875C31.06 60.2157 31.0173 60.4684 31.0574 60.6115C31.0975 60.7546 31.2095 60.9241 31.7019 61.1052C31.7036 61.1097 31.7053 61.1142 31.7069 61.1188C32.4856 61.4155 33.1358 61.1184 33.7467 60.4228C34.2588 59.8398 34.5872 58.9762 34.7163 58.1487C34.4 58.0767 34.0451 58.0545 33.6117 58.1789ZM60.4178 48.7322C60.3126 49.0524 60.2903 49.323 60.3372 49.4897C60.4019 49.7199 60.5284 49.8699 60.7602 49.971C61.1947 50.1604 61.9441 50.0373 62.5177 49.3933C62.4735 49.3156 62.401 49.1998 62.2328 49.0787C61.8969 48.8369 61.2592 48.6769 60.4178 48.7322Z" stroke="url(#paint17_radial_152_808)" stroke-width="0.485348"/>
<path opacity="0.325123" fill-rule="evenodd" clip-rule="evenodd" d="M30.8131 47.7946C29.8417 48.5118 26.7991 51.1288 27.6704 51.9648C28.5051 52.7656 36.8505 50.1732 39.1675 52.6222C40.1779 53.6902 38.7173 55.3048 39.6497 56.4414C40.3677 57.3167 44.0139 58.8455 46.174 59.4095C47.8682 59.8519 49.032 57.5165 47.7987 56.3807C45.8337 54.5713 49.9362 49.9861 51.7953 47.905C52.8799 46.6909 47.4599 44.6409 47.4599 44.6409L30.8131 47.7946Z" fill="url(#paint18_linear_152_808)"/>
<path fill-rule="evenodd" clip-rule="evenodd" d="M31.5742 48.633C32.8126 48.995 34.5835 47.8602 35.9315 47.9602C39.167 48.2002 43.0921 48.3514 41.5643 46.1106L41.0708 46.9557L40.6494 45.841L39.1528 46.84C39.1528 46.84 37.5087 46.2818 36.8028 46.1573C36.6554 46.1313 36.2612 46.9955 36.2612 46.9955L35.9026 46.3605C35.058 46.57 34.239 46.8248 33.5323 47.0885C31.8381 47.7205 30.7886 48.4033 31.5742 48.633Z" fill="url(#paint19_linear_152_808)"/>
<path opacity="0.477832" fill-rule="evenodd" clip-rule="evenodd" d="M50.6524 44.2657C50.7803 45.7876 56.465 45.8494 56.4381 46.9414C56.3789 49.3457 51.3428 49.5556 49.4943 55.2188C49.2295 56.03 51.2395 57.852 50.9819 57.6431C50.7243 57.4342 48.8246 56.0162 48.8042 54.9857C48.7402 51.7539 57.8461 47.2261 55.607 46.4874C54.3194 46.0625 49.929 45.1919 50.6524 44.2657Z" fill="url(#paint20_radial_152_808)"/>
<path opacity="0.586207" d="M62.9386 43.0173C62.9605 43.0776 62.9238 43.1564 62.8366 43.2363C62.7493 43.3163 62.6187 43.391 62.4734 43.4439C62.3281 43.4967 62.1801 43.5235 62.0618 43.5183C61.9436 43.5131 61.8649 43.4764 61.8429 43.4161C61.821 43.3559 61.8577 43.2771 61.9449 43.1971C62.0322 43.1171 62.1628 43.0425 62.3081 42.9896C62.4534 42.9367 62.6014 42.9099 62.7197 42.9151C62.8379 42.9203 62.9166 42.9571 62.9386 43.0173Z" fill="white"/>
<path opacity="0.586207" d="M60.8053 48.5451C60.8272 48.6053 60.8117 48.6764 60.762 48.7427C60.7124 48.809 60.6327 48.8651 60.5406 48.8986C60.4484 48.9322 60.3514 48.9404 60.2707 48.9215C60.1901 48.9026 60.1324 48.8582 60.1105 48.7979C60.0886 48.7377 60.1042 48.6666 60.1538 48.6003C60.2034 48.534 60.2831 48.4779 60.3752 48.4444C60.4674 48.4108 60.5644 48.4026 60.6451 48.4215C60.7258 48.4404 60.7834 48.4848 60.8053 48.5451Z" fill="white"/>
<path opacity="0.586207" d="M33.0204 58.4306C33.0424 58.4908 32.9986 58.5722 32.8989 58.6567C32.7991 58.7413 32.6515 58.8221 32.4885 58.8815C32.3255 58.9408 32.1604 58.9738 32.0297 58.9731C31.8989 58.9725 31.8131 58.9383 31.7912 58.878C31.7692 58.8178 31.813 58.7364 31.9127 58.6519C32.0125 58.5673 32.1601 58.4865 32.3231 58.4272C32.4861 58.3678 32.6512 58.3349 32.782 58.3355C32.9127 58.3362 32.9985 58.3704 33.0204 58.4306Z" fill="white"/>
<path opacity="0.251232" d="M29.0353 48.5633C26.6086 51.6401 21.9962 54.1171 27.7927 53.4643C26.6436 52.282 28.7092 51.7067 29.0353 48.5633Z" fill="url(#paint21_linear_152_808)"/>
<path opacity="0.363158" d="M46.5715 62.1539C46.5715 62.1539 51.2356 59.9411 51.8457 58.1409C52.2026 57.0877 48.6049 57.3197 49.0161 56.2655C50.5628 52.3 52.8277 51.6177 55.4309 49.2451C58.0342 46.8726 56.6802 46.6674 55.4889 46.4753C53.4487 46.1462 49.3074 46.5118 49.7387 43.8117C50.1726 41.0948 60.033 33.9518 60.033 33.9518C62.9526 31.5991 61.7844 29.6914 59.526 28.5679L46.1321 22.3666C46.1321 22.3666 49.9963 31.4647 49.4599 36.1658C48.7971 41.9753 37.7376 52.2136 43.4194 50.8328C45.4212 50.3463 46.5838 50.6665 47.9096 51.8616C50.6395 54.3226 46.5715 62.1539 46.5715 62.1539Z" fill="url(#paint22_linear_152_808)"/>
</g>
<defs>
<filter id="filter0_f_152_808" x="12.7126" y="13.0536" width="55.9265" height="52.2243" filterUnits="userSpaceOnUse" color-interpolation-filters="sRGB">
<feFlood flood-opacity="0" result="BackgroundImageFix"/>
<feBlend mode="normal" in="SourceGraphic" in2="BackgroundImageFix" result="shape"/>
<feGaussianBlur stdDeviation="0.800584" result="effect1_foregroundBlur_152_808"/>
</filter>
<filter id="filter1_f_152_808" x="7.53085" y="8.14413" width="66.6009" height="62.8988" filterUnits="userSpaceOnUse" color-interpolation-filters="sRGB">
<feFlood flood-opacity="0" result="BackgroundImageFix"/>
<feBlend mode="normal" in="SourceGraphic" in2="BackgroundImageFix" result="shape"/>
<feGaussianBlur stdDeviation="3.4692" result="effect1_foregroundBlur_152_808"/>
</filter>
<linearGradient id="paint0_linear_152_808" x1="39.9152" y1="16.7818" x2="33.4799" y2="28.9465" gradientUnits="userSpaceOnUse">
<stop stop-color="#C0CDF9"/>
<stop offset="1" stop-color="#07092D" stop-opacity="0.288043"/>
</linearGradient>
<linearGradient id="paint1_linear_152_808" x1="20.7623" y1="30.9537" x2="35.8284" y2="37.9791" gradientUnits="userSpaceOnUse">
<stop stop-color="white"/>
<stop offset="1" stop-color="white" stop-opacity="0"/>
</linearGradient>
<linearGradient id="paint2_linear_152_808" x1="30.2406" y1="20.0972" x2="48.1555" y2="28.451" gradientUnits="userSpaceOnUse">
<stop stop-color="white"/>
<stop offset="1" stop-color="white" stop-opacity="0"/>
</linearGradient>
<radialGradient id="paint3_radial_152_808" cx="0" cy="0" r="1" gradientUnits="userSpaceOnUse" gradientTransform="translate(38.6709 63.6788) rotate(-20) scale(11.8555 7.9356)">
<stop stop-color="white"/>
<stop offset="1" stop-color="white" stop-opacity="0"/>
</radialGradient>
<radialGradient id="paint4_radial_152_808" cx="0" cy="0" r="1" gradientUnits="userSpaceOnUse" gradientTransform="translate(44.6421 61.8083) rotate(-20) scale(15.1266 10.1252)">
<stop stop-color="white"/>
<stop offset="1" stop-color="white" stop-opacity="0"/>
</radialGradient>
<radialGradient id="paint5_radial_152_808" cx="0" cy="0" r="1" gradientUnits="userSpaceOnUse" gradientTransform="translate(56.4191 38.0279) rotate(-20) scale(8.45183 3.57817)">
<stop stop-color="white"/>
<stop offset="1" stop-color="white" stop-opacity="0"/>
</radialGradient>
<radialGradient id="paint6_radial_152_808" cx="0" cy="0" r="1" gradientUnits="userSpaceOnUse" gradientTransform="translate(58.4379 38.3436) rotate(-20) scale(8.45183 3.57817)">
<stop stop-color="white"/>
<stop offset="1" stop-color="white" stop-opacity="0"/>
</radialGradient>
<linearGradient id="paint7_linear_152_808" x1="63.1904" y1="42.1121" x2="63.7522" y2="43.5654" gradientUnits="userSpaceOnUse">
<stop stop-color="white"/>
<stop offset="1" stop-color="white" stop-opacity="0"/>
</linearGradient>
<linearGradient id="paint8_linear_152_808" x1="63.1873" y1="41.9229" x2="63.9962" y2="44.1455" gradientUnits="userSpaceOnUse">
<stop stop-color="white"/>
<stop offset="1" stop-color="white" stop-opacity="0"/>
</linearGradient>
<radialGradient id="paint9_radial_152_808" cx="0" cy="0" r="1" gradientUnits="userSpaceOnUse" gradientTransform="translate(63.5927 44.7726) rotate(-20) scale(3.4779 0.51386)">
<stop stop-color="white"/>
<stop offset="1" stop-color="white" stop-opacity="0"/>
</radialGradient>
<linearGradient id="paint10_linear_152_808" x1="60.1822" y1="48.1235" x2="61.3661" y2="49.1343" gradientUnits="userSpaceOnUse">
<stop stop-color="white"/>
<stop offset="1" stop-color="white" stop-opacity="0"/>
</linearGradient>
<linearGradient id="paint11_linear_152_808" x1="59.747" y1="47.7708" x2="61.4736" y2="49.3873" gradientUnits="userSpaceOnUse">
<stop stop-color="white"/>
<stop offset="1" stop-color="white" stop-opacity="0"/>
</linearGradient>
<radialGradient id="paint12_radial_152_808" cx="0" cy="0" r="1" gradientTransform="matrix(1.02773 -1.09772 0.375118 0.351198 61.9505 50.0942)" gradientUnits="userSpaceOnUse">
<stop stop-color="white"/>
<stop offset="1" stop-color="white" stop-opacity="0"/>
</radialGradient>
<radialGradient id="paint13_radial_152_808" cx="0" cy="0" r="1" gradientUnits="userSpaceOnUse" gradientTransform="translate(30.5092 53.692) rotate(-20) scale(5.61399 2.28534)">
<stop stop-color="white" stop-opacity="0.330049"/>
<stop offset="1" stop-color="white" stop-opacity="0"/>
</radialGradient>
<linearGradient id="paint14_linear_152_808" x1="32.3778" y1="57.9909" x2="33.0034" y2="58.9431" gradientUnits="userSpaceOnUse">
<stop stop-color="white"/>
<stop offset="1" stop-color="white" stop-opacity="0"/>
</linearGradient>
<linearGradient id="paint15_linear_152_808" x1="32.3428" y1="57.8587" x2="33.2674" y2="59.3165" gradientUnits="userSpaceOnUse">
<stop stop-color="white"/>
<stop offset="1" stop-color="white" stop-opacity="0"/>
</linearGradient>
<radialGradient id="paint16_radial_152_808" cx="0" cy="0" r="1" gradientTransform="matrix(2.58671 -1.8442 0.690022 0.967828 33.3755 61.1388)" gradientUnits="userSpaceOnUse">
<stop stop-color="white"/>
<stop offset="1" stop-color="white" stop-opacity="0"/>
</radialGradient>
<radialGradient id="paint17_radial_152_808" cx="0" cy="0" r="1" gradientUnits="userSpaceOnUse" gradientTransform="translate(34.2208 19.5904) rotate(-20) scale(43.9563 43.2628)">
<stop stop-color="white"/>
<stop offset="1" stop-color="white" stop-opacity="0"/>
</radialGradient>
<linearGradient id="paint18_linear_152_808" x1="33.6271" y1="55.526" x2="47.2198" y2="54.2914" gradientUnits="userSpaceOnUse">
<stop stop-color="white"/>
<stop offset="1" stop-color="white" stop-opacity="0"/>
</linearGradient>
<linearGradient id="paint19_linear_152_808" x1="37.4571" y1="45.5964" x2="37.2258" y2="49.2947" gradientUnits="userSpaceOnUse">
<stop stop-color="#EEEEEC"/>
<stop offset="1" stop-color="#EEEEEC" stop-opacity="0"/>
</linearGradient>
<radialGradient id="paint20_radial_152_808" cx="0" cy="0" r="1" gradientUnits="userSpaceOnUse" gradientTransform="translate(52.4511 50.2208) rotate(-20) scale(6.90787 8.77882)">
<stop stop-color="white"/>
<stop offset="1" stop-color="white" stop-opacity="0"/>
</radialGradient>
<linearGradient id="paint21_linear_152_808" x1="26.6845" y1="50.7513" x2="29.1995" y2="51.5912" gradientUnits="userSpaceOnUse">
<stop stop-color="white"/>
<stop offset="1" stop-color="white" stop-opacity="0"/>
</linearGradient>
<linearGradient id="paint22_linear_152_808" x1="52.5925" y1="50.8835" x2="41.1161" y2="37.387" gradientUnits="userSpaceOnUse">
<stop stop-color="#729FCF"/>
<stop offset="1" stop-color="#729FCF" stop-opacity="0"/>
</linearGradient>
<clipPath id="clip0_152_808">
<rect width="60" height="60" fill="white" transform="translate(0.54834 21.0698) rotate(-20)"/>
</clipPath>
</defs>
</svg>
