<svg width="58" height="58" viewBox="0 0 58 58" fill="none" xmlns="http://www.w3.org/2000/svg">
<g clip-path="url(#clip0_152_785)">
<path d="M25.1839 5.29232L37.2002 8.58557L48.1317 14.5638L51.6825 31.3503L20.7257 49.3614L10.9687 14.9009L25.1839 5.29232Z" fill="#FDB300"/>
<path d="M19.2143 18.2323L20.7257 49.3614L10.9688 14.9009L19.2143 18.2323Z" fill="#EA6C00"/>
<path d="M43.437 28.0187L20.7257 49.3611L51.6826 31.3501L43.437 28.0187Z" fill="#EA6C00"/>
<path d="M19.2144 18.2324L43.4371 28.019L20.7258 49.3615L19.2144 18.2324Z" fill="#FDAD00"/>
<path d="M37.2002 8.58569L25.1839 5.2924L19.2143 18.2324L37.2002 8.58569Z" fill="#FDD231"/>
<path d="M37.2002 8.58569L48.1317 14.564L43.437 28.019L37.2002 8.58569Z" fill="#FDD231"/>
<path d="M51.6826 31.3504L48.1317 14.5638L43.437 28.0189L51.6826 31.3504Z" fill="#FDAD00"/>
<path d="M10.9688 14.9007L25.1839 5.29208L19.2143 18.2321L10.9688 14.9007Z" fill="#FDAD00"/>
<path d="M37.2002 8.58569L19.2143 18.2324L43.437 28.019L37.2002 8.58569Z" fill="#FEEEB7"/>
</g>
<defs>
<clipPath id="clip0_152_785">
<rect width="44" height="44" fill="white" transform="translate(16.8433 0.36084) rotate(22)"/>
</clipPath>
</defs>
</svg>
