<svg width="59" height="60" viewBox="0 0 59 60" fill="none" xmlns="http://www.w3.org/2000/svg">
<g clip-path="url(#clip0_152_771)">
<path d="M29.5 30.0004C26.5718 26.5107 26.9987 21.3316 30.4535 18.4326C33.9083 15.5337 39.0829 16.0127 42.0111 19.5023C44.9393 22.9921 44.5124 28.1712 41.0576 31.0701C37.6027 33.969 32.4283 33.4901 29.5 30.0004Z" fill="#1ABCFE"/>
<path d="M27.593 53.1356C24.6649 49.6459 25.0917 44.4668 28.5465 41.5679L34.8021 36.3189L40.1041 42.6376C43.0324 46.1273 42.6055 51.3063 39.1506 54.2053C35.6958 57.1043 30.5213 56.6254 27.593 53.1356Z" fill="#0ACF83"/>
<path d="M13.594 11.0439L24.198 23.6813L30.4535 18.4323C33.9084 15.5334 34.3353 10.3544 31.4071 6.86464C28.4788 3.37491 23.3044 2.89596 19.8495 5.79494L13.594 11.0439Z" fill="#FF7262"/>
<path d="M6.38479 27.8607C9.31302 31.3504 14.4875 31.8293 17.9423 28.9304L24.1978 23.6814L13.5938 11.044L7.33829 16.293C3.88345 19.1919 3.45656 24.371 6.38479 27.8607Z" fill="#F24E1E"/>
<path d="M16.9888 40.4984C19.9171 43.9882 25.0915 44.4671 28.5464 41.5681L34.8019 36.3191L24.1978 23.6817L17.9423 28.9307C14.4875 31.8296 14.0606 37.0087 16.9888 40.4984Z" fill="#A259FF"/>
</g>
<defs>
<clipPath id="clip0_152_771">
<rect width="33" height="50" fill="white" transform="translate(0.790527 21.4551) rotate(-40)"/>
</clipPath>
</defs>
</svg>
